<mxfile host="app.diagrams.net" modified="2022-12-18T10:14:56.903Z" agent="5.0 (X11)" version="20.6.2" etag="Q7qaccD-AZPLXAk0fSh_" type="github">
  <diagram id="4JcGcYxDaTWrSnIuFeD_" name="Page-1">
    <mxGraphModel dx="728" dy="708" grid="1" gridSize="10" guides="1" tooltips="1" connect="1" arrows="1" fold="1" page="1" pageScale="1" pageWidth="850" pageHeight="1100" math="0" shadow="0">
      <root>
        <mxCell id="0" />
        <mxCell id="1" parent="0" />
        <mxCell id="zg0A1C2LEaln6UAvxh7A-1" value="" style="shape=mxgraph.cisco.servers.unity_server;sketch=0;html=1;pointerEvents=1;dashed=0;fillColor=#036897;strokeColor=#ffffff;strokeWidth=2;verticalLabelPosition=bottom;verticalAlign=top;align=center;outlineConnect=0;" vertex="1" parent="1">
          <mxGeometry x="460" y="40" width="50" height="69" as="geometry" />
        </mxCell>
        <mxCell id="zg0A1C2LEaln6UAvxh7A-2" value="" style="shape=mxgraph.cisco.computers_and_peripherals.pc;sketch=0;html=1;pointerEvents=1;dashed=0;fillColor=#036897;strokeColor=#ffffff;strokeWidth=2;verticalLabelPosition=bottom;verticalAlign=top;align=center;outlineConnect=0;" vertex="1" parent="1">
          <mxGeometry x="80" y="40" width="78" height="70" as="geometry" />
        </mxCell>
        <mxCell id="zg0A1C2LEaln6UAvxh7A-3" value="" style="shape=flexArrow;endArrow=classic;html=1;rounded=0;" edge="1" parent="1">
          <mxGeometry width="50" height="50" relative="1" as="geometry">
            <mxPoint x="120" y="120" as="sourcePoint" />
            <mxPoint x="120" y="480" as="targetPoint" />
          </mxGeometry>
        </mxCell>
        <mxCell id="zg0A1C2LEaln6UAvxh7A-6" value="" style="shape=flexArrow;endArrow=classic;html=1;rounded=0;" edge="1" parent="1">
          <mxGeometry width="50" height="50" relative="1" as="geometry">
            <mxPoint x="480" y="120" as="sourcePoint" />
            <mxPoint x="480" y="480" as="targetPoint" />
          </mxGeometry>
        </mxCell>
        <mxCell id="zg0A1C2LEaln6UAvxh7A-8" value="" style="shape=flexArrow;endArrow=classic;startArrow=classic;html=1;rounded=0;fillColor=#FFB570;" edge="1" parent="1">
          <mxGeometry width="100" height="100" relative="1" as="geometry">
            <mxPoint x="130" y="280" as="sourcePoint" />
            <mxPoint x="470" y="280" as="targetPoint" />
          </mxGeometry>
        </mxCell>
        <mxCell id="zg0A1C2LEaln6UAvxh7A-9" value="&lt;font style=&quot;font-size: 16px;&quot;&gt;Poigné de main &lt;b&gt;HTTP&lt;/b&gt;&lt;/font&gt;" style="text;html=1;strokeColor=none;fillColor=none;align=center;verticalAlign=middle;whiteSpace=wrap;rounded=0;strokeWidth=3;" vertex="1" parent="1">
          <mxGeometry x="200" y="100" width="170" height="30" as="geometry" />
        </mxCell>
        <mxCell id="zg0A1C2LEaln6UAvxh7A-12" value="" style="shape=flexArrow;endArrow=classic;html=1;rounded=0;fillColor=#FFB570;" edge="1" parent="1">
          <mxGeometry width="50" height="50" relative="1" as="geometry">
            <mxPoint x="130" y="140" as="sourcePoint" />
            <mxPoint x="480" y="140" as="targetPoint" />
          </mxGeometry>
        </mxCell>
        <mxCell id="zg0A1C2LEaln6UAvxh7A-13" value="" style="shape=flexArrow;endArrow=classic;html=1;rounded=0;fillColor=#FFB570;" edge="1" parent="1">
          <mxGeometry width="50" height="50" relative="1" as="geometry">
            <mxPoint x="470" y="170" as="sourcePoint" />
            <mxPoint x="130" y="170" as="targetPoint" />
          </mxGeometry>
        </mxCell>
        <mxCell id="zg0A1C2LEaln6UAvxh7A-14" value="&lt;font size=&quot;1&quot;&gt;&lt;b style=&quot;font-size: 20px;&quot;&gt;Websocket&lt;/b&gt;&lt;/font&gt;" style="text;html=1;strokeColor=none;fillColor=none;align=center;verticalAlign=middle;whiteSpace=wrap;rounded=0;strokeWidth=3;" vertex="1" parent="1">
          <mxGeometry x="200" y="230" width="170" height="30" as="geometry" />
        </mxCell>
        <mxCell id="zg0A1C2LEaln6UAvxh7A-15" value="Tests de Download et upload" style="text;html=1;strokeColor=none;fillColor=none;align=center;verticalAlign=middle;whiteSpace=wrap;rounded=0;strokeWidth=3;fontSize=20;" vertex="1" parent="1">
          <mxGeometry x="160" y="290" width="280" height="30" as="geometry" />
        </mxCell>
        <mxCell id="zg0A1C2LEaln6UAvxh7A-16" value="" style="shape=flexArrow;endArrow=classic;startArrow=classic;html=1;rounded=0;fillColor=#FFB570;" edge="1" parent="1">
          <mxGeometry width="100" height="100" relative="1" as="geometry">
            <mxPoint x="130" y="410" as="sourcePoint" />
            <mxPoint x="470" y="410" as="targetPoint" />
          </mxGeometry>
        </mxCell>
        <mxCell id="zg0A1C2LEaln6UAvxh7A-17" value="Connexion fermée par l&#39;un des cotés" style="text;html=1;strokeColor=none;fillColor=none;align=center;verticalAlign=middle;whiteSpace=wrap;rounded=0;strokeWidth=3;" vertex="1" parent="1">
          <mxGeometry x="190" y="370" width="220" height="30" as="geometry" />
        </mxCell>
      </root>
    </mxGraphModel>
  </diagram>
</mxfile>
